<svg id="Capa_1" enable-background="new 0 0 512 512" viewBox="0 0 512 512" xmlns="http://www.w3.org/2000/svg"><g><path d="m60.034 60h30v30h-30z"/><path d="m422.034 241h30v30h-30z"/><path d="m60.034 422h30v30h-30z"/><path d="m419.662 387.312 34.688 34.688h-155.93c-6.192-17.459-22.865-30-42.42-30s-36.228 12.541-42.42 30h-65.089c-5.978-29.333-29.129-52.493-58.457-58.485v-17.515c0-41.355 33.645-75 75-75h48.546c6.192 17.459 22.865 30 42.42 30s36.228-12.541 42.42-30h65.089c6.968 34.192 37.271 60 73.491 60 41.355 0 75-33.645 75-75 0-36.208-25.791-66.503-59.966-73.485v-17.515c0-57.897-47.103-105-105-105h-48.614c-6.192-17.459-22.865-30-42.42-30s-36.228 12.541-42.42 30h-65.089c-6.969-34.192-37.272-60-73.491-60-41.355 0-75 33.645-75 75s33.645 75 75 75c36.219 0 66.522-25.808 73.491-60h65.089c6.192 17.459 22.865 30 42.42 30s36.228-12.541 42.42-30h48.614c41.355 0 75 33.645 75 75v17.503c-29.36 5.969-52.542 29.142-58.525 58.497h-65.089c-6.192-17.459-22.865-30-42.42-30s-36.228 12.541-42.42 30h-48.546c-57.897 0-105 47.103-105 105v17.503c-34.208 6.955-60.034 37.265-60.034 73.497 0 41.355 33.645 75 75 75 36.219 0 66.522-25.808 73.491-60h65.089c6.192 17.459 22.865 30 42.42 30s36.228-12.541 42.42-30h155.932l-34.689 34.689 21.213 21.213 70.901-70.901-70.901-70.902zm-344.662-267.312c-24.813 0-45-20.187-45-45s20.187-45 45-45 45 20.187 45 45-20.187 45-45 45zm181-30c-8.271 0-15-6.729-15-15s6.729-15 15-15 15 6.729 15 15-6.729 15-15 15zm181 121c24.813 0 45 20.187 45 45s-20.187 45-45 45-45-20.187-45-45 20.187-45 45-45zm-181 30c8.271 0 15 6.729 15 15s-6.729 15-15 15-15-6.729-15-15 6.729-15 15-15zm-181 241c-24.813 0-45-20.187-45-45s20.187-45 45-45 45 20.187 45 45-20.187 45-45 45zm181-30c-8.271 0-15-6.729-15-15s6.729-15 15-15 15 6.729 15 15-6.729 15-15 15z"/></g><g/><g/><g/><g/><g/><g/><g/><g/><g/><g/><g/><g/><g/><g/><g/></svg>