<svg id="Capa_1" enable-background="new 0 0 512 512" viewBox="0 0 512 512" xmlns="http://www.w3.org/2000/svg"><g><path d="m256 202.052c-8.271 0-15-6.729-15-15h-30c0 19.555 12.541 36.228 30 42.42v24.632h30v-24.632c17.459-6.192 30-22.865 30-42.42 0-24.813-20.187-45-45-45-8.271 0-15-6.729-15-15s6.729-15 15-15 15 6.729 15 15h30c0-19.555-12.541-36.228-30-42.42v-24.632h-30v24.632c-17.459 6.192-30 22.865-30 42.42 0 24.813 20.187 45 45 45 8.271 0 15 6.729 15 15s-6.729 15-15 15z"/><path d="m352.692 294.58v-13.771c37.936-29.687 60.36-75.375 60.36-123.757.001-86.599-70.452-157.052-157.052-157.052s-157.053 70.453-157.053 157.052c0 48.382 22.425 94.07 60.36 123.757v13.771c-17.459 6.192-30 22.865-30 42.42 0 11.517 4.354 22.032 11.495 30-7.141 7.968-11.495 18.483-11.495 30 0 24.813 20.187 45 45 45h3.082l7.983 70h141.254l7.983-70h3.083c24.813 0 45-20.187 45-45 0-11.517-4.354-22.032-11.495-30 7.142-7.968 11.495-18.483 11.495-30 0-19.555-12.541-36.228-30-42.42zm-223.745-137.528c0-70.056 56.995-127.052 127.053-127.052s127.053 56.996 127.053 127.052c0 41.282-20.186 80.144-53.997 103.954l-6.363 4.481v26.513h-133.385v-26.512l-6.363-4.481c-33.812-23.811-53.998-62.673-53.998-103.955zm45.361 164.948h163.385c8.271 0 15 6.729 15 15s-6.729 15-15 15h-163.385c-8.271 0-15-6.729-15-15s6.728-15 15-15zm125.546 160h-87.707l-4.562-40h96.832zm37.838-70h-163.384c-8.271 0-15-6.729-15-15s6.729-15 15-15h163.385c8.271 0 15 6.729 15 15s-6.729 15-15.001 15z"/></g><g/><g/><g/><g/><g/><g/><g/><g/><g/><g/><g/><g/><g/><g/><g/></svg>