<svg id="Capa_1" enable-background="new 0 0 512 512" viewBox="0 0 512 512" xmlns="http://www.w3.org/2000/svg"><g><path d="m442.303 294.507c-3.92 2.573-7.303 5.659-10.126 9.11l-52.398-18.905c2.14-9.23 3.272-18.841 3.272-28.712 0-29.635-10.201-56.931-27.273-78.566l91.832-91.831c5.876 2.816 12.451 4.397 19.39 4.397 24.813 0 45-20.187 45-45s-20.187-45-45-45-45 20.187-45 45c0 6.939 1.581 13.514 4.398 19.389l-91.831 91.831c-17.93-14.149-39.75-23.569-63.566-26.383v-42.417c17.459-6.192 30-22.865 30-42.42 0-24.813-20.187-45-45-45s-45 20.187-45 45c0 19.555 12.541 36.228 30 42.42v42.418c-44.519 5.26-82.056 33.626-100.258 72.742l-41.873-13.675c-.163-7.107-2.018-14.121-5.531-20.534-11.921-21.762-39.324-29.77-61.086-17.85-10.542 5.775-18.204 15.309-21.575 26.847s-2.048 23.697 3.727 34.238c5.774 10.542 15.309 18.205 26.846 21.576 4.183 1.222 8.445 1.827 12.685 1.827 7.455 0 14.834-1.873 21.556-5.554 5.563-3.048 10.314-7.15 14.066-12.034l41.851 13.668c-1.608 8.058-2.458 16.387-2.458 24.911 0 29.635 10.201 56.931 27.273 78.566l-91.834 91.832c-5.875-2.817-12.451-4.398-19.39-4.398-24.813 0-45 20.187-45 45s20.187 45 45 45 45-20.187 45-45c0-6.939-1.581-13.514-4.398-19.389l91.832-91.832c21.635 17.072 48.931 27.273 78.566 27.273 10.385 0 20.48-1.262 30.148-3.624l15.515 41.485c-7.617 6.36-12.893 15.003-15.049 24.853-2.57 11.742-.415 23.782 6.07 33.903 6.484 10.12 16.522 17.11 28.265 19.68 3.23.708 6.483 1.057 9.713 1.057 8.509 0 16.854-2.426 24.189-7.126 10.121-6.485 17.11-16.523 19.681-28.266 5.306-24.239-10.097-48.275-34.335-53.582-3.473-.761-6.972-1.098-10.439-1.041l-15.519-41.495c23.82-12.338 43.259-31.995 55.326-55.975l52.452 18.924c-.067 8.584 2.307 17.276 7.36 24.975 6.596 10.049 16.71 16.928 28.479 19.369 3.073.637 6.163.953 9.231.953 8.679 0 17.178-2.522 24.603-7.396 20.743-13.616 26.541-41.569 12.926-62.312-13.614-20.744-41.568-26.543-62.313-12.927zm-381.225-91.363c-3.515 1.925-7.568 2.365-11.414 1.242-3.846-1.124-7.023-3.678-8.948-7.192-3.974-7.254-1.305-16.388 5.949-20.361 2.281-1.25 4.747-1.842 7.181-1.842 5.307 0 10.457 2.818 13.182 7.792 3.972 7.253 1.303 16.387-5.95 20.361zm284.148 255.455c-.856 3.914-3.187 7.26-6.56 9.421-3.374 2.162-7.389 2.877-11.301 2.023-3.914-.857-7.26-3.187-9.422-6.56-2.161-3.374-2.88-7.387-2.022-11.301.856-3.914 3.187-7.26 6.56-9.421 2.445-1.567 5.227-2.375 8.063-2.375 1.076 0 2.16.116 3.237.352 8.079 1.769 13.213 9.781 11.445 17.861zm121.774-428.599c8.271 0 15 6.729 15 15s-6.729 15-15 15-15-6.729-15-15 6.729-15 15-15zm-211 0c8.271 0 15 6.729 15 15s-6.729 15-15 15-15-6.729-15-15 6.729-15 15-15zm-211 452c-8.271 0-15-6.729-15-15s6.729-15 15-15 15 6.729 15 15-6.729 15-15 15zm113.948-226c0-48.414 35.634-88.66 82.052-95.892v23.472c-17.459 6.192-30 22.865-30 42.42 0 24.813 20.187 45 45 45 8.271 0 15 6.729 15 15s-6.729 15-15 15-15-6.729-15-15h-30c0 19.555 12.541 36.228 30 42.42v23.472c-46.417-7.232-82.052-47.478-82.052-95.892zm112.052 95.892v-23.472c17.459-6.192 30-22.865 30-42.42 0-24.813-20.187-45-45-45-8.271 0-15-6.729-15-15s6.729-15 15-15 15 6.729 15 15h30c0-19.555-12.541-36.228-30-42.42v-23.472c46.417 7.232 82.052 47.478 82.052 95.892s-35.635 88.66-82.052 95.892zm204.229-7.226c-3.351 2.199-7.355 2.963-11.278 2.147-3.923-.813-7.295-3.106-9.493-6.456-4.539-6.915-2.605-16.232 4.308-20.771 2.532-1.662 5.385-2.456 8.208-2.456 4.889 0 9.687 2.381 12.563 6.764 4.538 6.916 2.606 16.233-4.308 20.772z"/></g><g/><g/><g/><g/><g/><g/><g/><g/><g/><g/><g/><g/><g/><g/><g/></svg>