<svg id="Capa_1" enable-background="new 0 0 512.412 512.412" viewBox="0 0 512.412 512.412" xmlns="http://www.w3.org/2000/svg"><g><path d="m409.133 387.921-26.188-26.188c23.874-28.625 38.26-65.426 38.26-105.528s-14.386-76.903-38.26-105.528l26.188-26.188 35.355 7.071 67.923-67.922-53.034-10.606-10.606-53.032-67.921 67.922 7.07 35.356-26.188 26.188c-28.625-23.874-65.426-38.26-105.527-38.26s-76.902 14.386-105.527 38.26l-26.188-26.188 7.071-35.356-67.922-67.922-10.606 53.033-53.033 10.606 67.921 67.922 35.356-7.071 26.188 26.188c-23.874 28.625-38.26 65.426-38.26 105.527s14.386 76.902 38.26 105.527l-26.188 26.188-35.356-7.071-67.921 67.923 53.033 10.606 10.606 53.033 67.922-67.921-7.071-35.356 26.188-26.188c28.625 23.874 65.426 38.26 105.527 38.26s76.902-14.386 105.527-38.26l26.188 26.188-7.07 35.356 67.921 67.921 10.606-53.033 53.034-10.606-67.923-67.922zm-17.927-131.715c0 31.828-11.078 61.112-29.571 84.216l-21.367-21.367c13.144-17.535 20.938-39.299 20.938-62.85s-7.794-45.315-20.938-62.85l21.367-21.367c18.493 23.106 29.571 52.39 29.571 84.218zm-210 0c0-15.264 4.594-29.47 12.458-41.33l21.94 21.94c-2.817 5.875-4.398 12.451-4.398 19.389s1.581 13.514 4.398 19.389l-21.94 21.94c-7.864-11.858-12.458-26.064-12.458-41.328zm60 0c0-8.271 6.729-15 15-15s15 6.729 15 15-6.729 15-15 15-15-6.729-15-15zm34.389-40.603c-5.875-2.817-12.45-4.398-19.389-4.398s-13.514 1.581-19.389 4.398l-21.94-21.94c11.859-7.863 26.065-12.458 41.33-12.458s29.47 4.594 41.329 12.457zm-38.779 81.205c5.875 2.817 12.451 4.398 19.389 4.398 6.939 0 13.514-1.581 19.389-4.398l21.94 21.94c-11.859 7.863-26.065 12.457-41.329 12.457s-29.47-4.594-41.33-12.458zm59.992-21.212c2.817-5.875 4.398-12.451 4.398-19.39s-1.581-13.515-4.398-19.39l21.94-21.94c7.863 11.859 12.458 26.066 12.458 41.33s-4.594 29.471-12.458 41.33zm133.539-214.745 3.536 17.678 17.677 3.536-16.931 16.931-17.678-3.536-3.535-17.678zm-174.141 60.355c31.827 0 61.112 11.078 84.216 29.571l-21.367 21.367c-17.535-13.143-39.299-20.938-62.849-20.938s-45.314 7.794-62.849 20.938l-21.367-21.367c23.104-18.493 52.388-29.571 84.216-29.571zm-178.424-22.211-16.931-16.931 17.678-3.536 3.536-17.678 16.931 16.931-3.537 17.679zm43.424 157.211c0-31.827 11.078-61.112 29.571-84.216l21.367 21.367c-13.143 17.535-20.938 39.299-20.938 62.849s7.794 45.314 20.938 62.849l-21.367 21.367c-18.494-23.104-29.571-52.389-29.571-84.216zm-39.142 195.355-3.536-17.678-17.678-3.536 16.931-16.931 17.678 3.536 3.536 17.678zm174.142-60.355c-31.827 0-61.112-11.078-84.216-29.571l21.367-21.367c17.535 13.143 39.299 20.938 62.849 20.938 23.551 0 45.314-7.794 62.849-20.938l21.367 21.367c-23.105 18.493-52.389 29.571-84.216 29.571zm177.677 42.677-3.536 17.678-16.931-16.931 3.535-17.678 17.678-3.536 16.931 16.931z"/></g><g/><g/><g/><g/><g/><g/><g/><g/><g/><g/><g/><g/><g/><g/><g/></svg>