<svg id="Capa_1" enable-background="new 0 0 512 512" viewBox="0 0 512 512" xmlns="http://www.w3.org/2000/svg"><g><path d="m256 188.948c-70.057 0-127.052 56.996-127.052 127.052s56.995 127.052 127.052 127.052 127.052-56.995 127.052-127.052-56.995-127.052-127.052-127.052zm-97.052 127.052c0-48.414 35.635-88.66 82.052-95.892v23.472c-17.459 6.192-30 22.865-30 42.42 0 24.813 20.187 45 45 45 8.271 0 15 6.729 15 15s-6.729 15-15 15-15-6.729-15-15h-30c0 19.555 12.541 36.228 30 42.42v23.472c-46.418-7.232-82.052-47.478-82.052-95.892zm112.052 95.892v-23.472c17.459-6.192 30-22.865 30-42.42 0-24.813-20.187-45-45-45-8.271 0-15-6.729-15-15s6.729-15 15-15 15 6.729 15 15h30c0-19.555-12.541-36.228-30-42.42v-23.472c46.418 7.232 82.052 47.478 82.052 95.892s-35.634 88.66-82.052 95.892z"/><path d="m463.625 204.012 21.213-21.213-95.637-95.637-21.213 21.213 15.999 15.999-24.961 24.961c-17.677-10.967-37.214-19.205-58.026-24.113v-35.222h37.625v-90h-165.25v90h37.625v35.221c-20.812 4.908-40.349 13.146-58.026 24.113l-24.961-24.961 15.999-15.999-21.213-21.213-95.637 95.637 21.213 21.213 15.999-15.999 24.961 24.961c-18.585 29.956-29.335 65.257-29.335 103.027 0 108.075 87.925 196 196 196s196-87.925 196-196c0-37.77-10.75-73.071-29.334-103.026l24.961-24.961zm-260.25-144.012v-30h105.251v30zm37.625 30h30v30.569c-4.952-.376-9.954-.569-15-.569s-10.048.192-15 .569zm-155.413 76.8 21.213-21.213 21.687 21.687c-7.597 6.523-14.69 13.616-21.214 21.214zm170.413 315.2c-91.533 0-166-74.467-166-166s74.467-166 166-166 166 74.467 166 166-74.467 166-166 166zm148.726-293.512c-6.523-7.597-13.616-14.69-21.214-21.214l21.687-21.687 21.213 21.213z"/></g><g/><g/><g/><g/><g/><g/><g/><g/><g/><g/><g/><g/><g/><g/><g/></svg>