<svg id="Capa_1" enable-background="new 0 0 512 512" viewBox="0 0 512 512" xmlns="http://www.w3.org/2000/svg"><g><path d="m416.11 164.415h15v-104.415h-80.882c.003-.266.005-.531.005-.797.001-32.644-26.557-59.203-59.202-59.203s-59.203 26.559-59.203 59.203c0 .266.002.531.005.797h-80.882v104.415h15c9.998 0 18.131 8.134 18.131 18.131 0 9.998-8.134 18.132-18.131 18.132h-6.558l-78.504 84.87v78.211c0 28.145 8.607 55.155 24.892 78.11l15.17 21.385v48.746h139.939v-49.355l20.687-34.326c11.232-18.638 17.772-39.681 19.116-61.318h130.417v-166.323h-15c-9.998 0-18.131-8.134-18.131-18.132 0-9.997 8.134-18.131 18.131-18.131zm-145.158 194.22c0 19.099-5.211 37.841-15.069 54.199l-24.993 41.469v27.697h-79.938v-28.307l-20.702-29.182c-12.666-17.854-19.36-38.862-19.36-60.753v-66.463l40.062-43.312v113.017h45c24.813 0 45-20.187 45-45v-36c0-8.271 6.729-15 15-15s15 6.729 15 15zm130.158-221.827c-19.217 6.318-33.131 24.435-33.131 45.738 0 21.305 13.914 39.421 33.131 45.739v108.715h-100.158v-51c0-24.813-20.187-45-45-45s-45 20.187-45 45v36c0 8.271-6.729 15-15 15h-15v-108.715c19.217-6.318 33.131-24.435 33.131-45.739s-13.914-39.42-33.131-45.738v-46.808h90.6l-7.797-20.363c-1.278-3.34-1.927-6.85-1.927-10.434 0-16.103 13.101-29.203 29.203-29.203s29.203 13.101 29.203 29.203c0 3.585-.648 7.095-1.926 10.434l-7.797 20.363h90.6v46.808z"/></g><g/><g/><g/><g/><g/><g/><g/><g/><g/><g/><g/><g/><g/><g/><g/></svg>