<svg id="Capa_1" enable-background="new 0 0 512 512" viewBox="0 0 512 512" xmlns="http://www.w3.org/2000/svg"><g><path d="m109.556 210c24.813 0 45-20.187 45-45s-20.187-45-45-45-45 20.187-45 45 20.187 45 45 45zm0-60c8.271 0 15 6.729 15 15s-6.729 15-15 15-15-6.729-15-15 6.729-15 15-15z"/><path d="m289.556 210c24.813 0 45-20.187 45-45s-20.187-45-45-45-45 20.187-45 45 20.187 45 45 45zm0-60c8.271 0 15 6.729 15 15s-6.729 15-15 15-15-6.729-15-15 6.729-15 15-15z"/><path d="m126.79 295.714-17.234 17.234-17.234-17.234-21.213 21.213 17.234 17.233-17.234 17.234 21.213 21.212 17.234-17.233 17.234 17.233 21.212-21.212-17.233-17.234 17.233-17.233z"/><path d="m394.556 257.107v-257.107h-390v462h273.64c23.403 30.384 60.131 50 101.36 50 70.518 0 127.889-57.37 127.889-127.889-.001-65.444-49.414-119.554-112.889-127.004zm-360 174.893v-402h330v227.107c-56.403 6.62-101.695 50.084-111.089 105.605-23.172-12.774-38.911-37.433-38.911-65.712v-54.787l14.491 14.491 21.213-21.213-35.704-35.704v-34.787c0-57.897-47.103-105-105-105h-45v30h45c41.355 0 75 33.645 75 75v34.787l-35.704 35.704 21.213 21.213 14.491-14.491v54.787c0 44.721 28.114 82.976 67.587 98.083 1.105 12.948 4.147 25.35 8.836 36.917zm345 50c-53.976 0-97.889-43.913-97.889-97.889s43.913-97.889 97.889-97.889 97.889 43.913 97.889 97.889-43.913 97.889-97.889 97.889z"/><path d="m364.556 316.223h30v75.778h-30z"/><path d="m364.556 422.001h30v30h-30z"/></g><g/><g/><g/><g/><g/><g/><g/><g/><g/><g/><g/><g/><g/><g/><g/></svg>