<svg xmlns="http://www.w3.org/2000/svg" viewBox="0 0 640 512"><!--!Font Awesome Free 6.7.2 by @fontawesome - https://fontawesome.com License - https://fontawesome.com/license/free Copyright 2025 Fonticons, Inc.--><path d="M634.9 154.9C457.7-9 182.2-8.9 5.1 154.9c-6.7 6.2-6.8 16.6-.4 23l34.2 34c6.1 6.1 16 6.2 22.4 .4 145.9-133.7 371.3-133.7 517.3 0 6.4 5.9 16.3 5.7 22.4-.4l34.2-34c6.4-6.4 6.3-16.8-.4-23zM320 352c-35.4 0-64 28.7-64 64s28.7 64 64 64 64-28.7 64-64-28.7-64-64-64zm202.7-83.6c-115.3-101.9-290.2-101.8-405.3 0-6.9 6.1-7.1 16.7-.6 23.2l34.4 34c6 5.9 15.7 6.3 22.1 .8 84-72.6 209.7-72.4 293.5 0 6.4 5.5 16.1 5.1 22.1-.8l34.4-34c6.6-6.5 6.3-17.1-.6-23.2z"/></svg>